<svg width="18" height="18" fill="none" xmlns="http://www.w3.org/2000/svg"><path fill-rule="evenodd" clip-rule="evenodd" d="M18 3.793v13.389c0 .452-.4.818-.892.818H.892C.399 18 0 17.634 0 17.182V3.793c0 .452.4.819.892.819h.892v11.752h14.432V4.612h.892c.493 0 .892-.367.892-.819zm-.262-.579zm-2.783-.239l-1.46-1.339h-8.99l-1.46 1.34H.892a.931.931 0 00-.63.239L3.503.24A.934.934 0 014.135 0h9.73a.93.93 0 01.63.24l3.243 2.974a.931.931 0 00-.63-.239h-2.153zm0 0l1.261 1.157v.48H1.784v-.48l1.261-1.157h11.91zM.259 3.217zm0 0l.002-.002m12.793 3.48c-.492 0-.892.366-.892.817 0 1.631-1.384 2.901-3.162 2.901s-3.162-1.27-3.162-2.9c0-.452-.4-.819-.892-.819-.493 0-.892.367-.892.818 0 2.535 2.183 4.538 4.946 4.538s4.946-2.003 4.946-4.538c0-.451-.4-.818-.892-.818z" fill="#111"/><mask id="a" maskUnits="userSpaceOnUse" x="0" y="0" width="18" height="18"><path fill-rule="evenodd" clip-rule="evenodd" d="M18 3.793v13.389c0 .452-.4.818-.892.818H.892C.399 18 0 17.634 0 17.182V3.793c0 .452.4.819.892.819h.892v11.752h14.432V4.612h.892c.493 0 .892-.367.892-.819zm-.262-.579zm-2.783-.239l-1.46-1.339h-8.99l-1.46 1.34H.892a.931.931 0 00-.63.239L3.503.24A.934.934 0 014.135 0h9.73a.93.93 0 01.63.24l3.243 2.974a.931.931 0 00-.63-.239h-2.153zm0 0l1.261 1.157v.48H1.784v-.48l1.261-1.157h11.91zM.259 3.217zm0 0l.002-.002m12.793 3.48c-.492 0-.892.366-.892.817 0 1.631-1.384 2.901-3.162 2.901s-3.162-1.27-3.162-2.9c0-.452-.4-.819-.892-.819-.493 0-.892.367-.892.818 0 2.535 2.183 4.538 4.946 4.538s4.946-2.003 4.946-4.538c0-.451-.4-.818-.892-.818z" fill="#fff"/></mask><g filter="url(#filter0_d)" mask="url(#a)"><path fill="#999" d="M0 0h18v18H0z"/></g><defs><filter id="filter0_d" x="-8" y="-3" width="34" height="34" filterUnits="userSpaceOnUse" color-interpolation-filters="sRGB"><feFlood flood-opacity="0" result="BackgroundImageFix"/><feColorMatrix in="SourceAlpha" values="0 0 0 0 0 0 0 0 0 0 0 0 0 0 0 0 0 0 127 0"/><feOffset dy="5"/><feGaussianBlur stdDeviation="4"/><feColorMatrix values="0 0 0 0 0 0 0 0 0 0 0 0 0 0 0 0 0 0 0.139804 0"/><feBlend in2="BackgroundImageFix" result="effect1_dropShadow"/><feBlend in="SourceGraphic" in2="effect1_dropShadow" result="shape"/></filter></defs></svg>