<svg width="12" height="12" fill="none" xmlns="http://www.w3.org/2000/svg"><path fill-rule="evenodd" clip-rule="evenodd" d="M6.982 5.5v-2a.49.49 0 01.776-.406l3.436 2.5a.505.505 0 010 .813L7.758 8.906a.49.49 0 01-.776-.407v-2H1.09A.495.495 0 01.6 6c0-.276.22-.5.49-.5h5.892zm.982.497a.495.495 0 00-.491-.497h-.491v1h.49c.27 0 .49-.222.492-.497v-.006zm0 0v1.531L10.064 6l-2.1-1.528v1.525z" fill="#111"/><mask id="a" maskUnits="userSpaceOnUse" x="0" y="3" width="12" height="6"><path fill-rule="evenodd" clip-rule="evenodd" d="M6.982 5.5v-2a.49.49 0 01.776-.406l3.436 2.5a.505.505 0 010 .813L7.758 8.906a.49.49 0 01-.776-.407v-2H1.09A.495.495 0 01.6 6c0-.276.22-.5.49-.5h5.892zm.982.497a.495.495 0 00-.491-.497h-.491v1h.49c.27 0 .49-.222.492-.497v-.006zm0 0v1.531L10.064 6l-2.1-1.528v1.525z" fill="#fff"/></mask><g mask="url(#a)"><path fill="#fff" d="M0 0h12v12H0z"/></g></svg>