<svg width="30" height="30" fill="none" xmlns="http://www.w3.org/2000/svg"><path fill-rule="evenodd" clip-rule="evenodd" d="M12.688 5.771c.073-.235.115-.373.159-.529.38-1.36.35-2.42-.432-3.4C11.178.082 8.325.21 6.43 1.543 2.406 4.33 0 8.903 0 13.913c0 8.38 6.708 15.118 15.052 15.118 6.746 0 12.695-4.572 14.503-10.996 1.096-4.674.305-9.406-3.925-11.591-2.963-1.398-5.436-1.226-9.177-.06-3.036.948-3.586 1-4.082.402.018.022.033-.032.086-.223.044-.159.113-.411.231-.792zm2.364 20.511c-6.832 0-12.315-5.506-12.315-12.369 0-4.103 1.962-7.832 5.255-10.113.827-.582 2.017-.63 2.19-.37l.087.118c.102.123.11.352-.058.953-.034.122-.07.24-.135.45-.557 1.79-.637 2.553.176 3.574 1.598 1.926 2.737 1.818 7.013.485 3.145-.981 5.013-1.111 7.157-.1 2.723 1.408 3.31 4.913 2.484 8.437-1.46 5.187-6.34 8.935-11.854 8.935zm6.22-8.496a3.865 3.865 0 01-3.856-3.873 3.865 3.865 0 013.856-3.873 3.865 3.865 0 013.856 3.873 3.865 3.865 0 01-3.856 3.873zm1.12-3.873c0 .621-.502 1.125-1.12 1.125-.618 0-1.12-.504-1.12-1.125s.502-1.124 1.12-1.124c.618 0 1.12.503 1.12 1.124zM6.343 16.537a2.618 2.618 0 01-2.612-2.624 2.619 2.619 0 012.612-2.624 2.618 2.618 0 012.613 2.624c0 1.45-1.17 2.624-2.613 2.624zm-.124-2.624a.125.125 0 11.25 0 .125.125 0 01-.25 0zm3.234 8.871a2.618 2.618 0 01-2.612-2.624 2.619 2.619 0 012.612-2.624 2.618 2.618 0 012.612 2.624c0 1.45-1.17 2.624-2.612 2.624zM9.33 20.16a.125.125 0 11.124.125.125.125 0 01-.124-.125zm6.966 5.123a2.618 2.618 0 01-2.612-2.624 2.619 2.619 0 012.612-2.624 2.618 2.618 0 012.612 2.624 2.618 2.618 0 01-2.612 2.624zm-.124-2.624a.125.125 0 11.249 0 .125.125 0 01-.25 0z" fill="#111"/><mask id="a" maskUnits="userSpaceOnUse" x="0" y="0" width="30" height="30"><path fill-rule="evenodd" clip-rule="evenodd" d="M12.688 5.771c.073-.235.115-.373.159-.529.38-1.36.35-2.42-.432-3.4C11.178.082 8.325.21 6.43 1.543 2.406 4.33 0 8.903 0 13.913c0 8.38 6.708 15.118 15.052 15.118 6.746 0 12.695-4.572 14.503-10.996 1.096-4.674.305-9.406-3.925-11.591-2.963-1.398-5.436-1.226-9.177-.06-3.036.948-3.586 1-4.082.402.018.022.033-.032.086-.223.044-.159.113-.411.231-.792zm2.364 20.511c-6.832 0-12.315-5.506-12.315-12.369 0-4.103 1.962-7.832 5.255-10.113.827-.582 2.017-.63 2.19-.37l.087.118c.102.123.11.352-.058.953-.034.122-.07.24-.135.45-.557 1.79-.637 2.553.176 3.574 1.598 1.926 2.737 1.818 7.013.485 3.145-.981 5.013-1.111 7.157-.1 2.723 1.408 3.31 4.913 2.484 8.437-1.46 5.187-6.34 8.935-11.854 8.935zm6.22-8.496a3.865 3.865 0 01-3.856-3.873 3.865 3.865 0 013.856-3.873 3.865 3.865 0 013.856 3.873 3.865 3.865 0 01-3.856 3.873zm1.12-3.873c0 .621-.502 1.125-1.12 1.125-.618 0-1.12-.504-1.12-1.125s.502-1.124 1.12-1.124c.618 0 1.12.503 1.12 1.124zM6.343 16.537a2.618 2.618 0 01-2.612-2.624 2.619 2.619 0 012.612-2.624 2.618 2.618 0 012.613 2.624c0 1.45-1.17 2.624-2.613 2.624zm-.124-2.624a.125.125 0 11.25 0 .125.125 0 01-.25 0zm3.234 8.871a2.618 2.618 0 01-2.612-2.624 2.619 2.619 0 012.612-2.624 2.618 2.618 0 012.612 2.624c0 1.45-1.17 2.624-2.612 2.624zM9.33 20.16a.125.125 0 11.124.125.125.125 0 01-.124-.125zm6.966 5.123a2.618 2.618 0 01-2.612-2.624 2.619 2.619 0 012.612-2.624 2.618 2.618 0 012.612 2.624 2.618 2.618 0 01-2.612 2.624zm-.124-2.624a.125.125 0 11.249 0 .125.125 0 01-.25 0z" fill="#fff"/></mask><g mask="url(#a)"><path fill="#FEB53E" d="M0 0h30v30H0z"/></g></svg>