<svg width="50" height="50" fill="none" xmlns="http://www.w3.org/2000/svg"><path fill="#fff" d="M0 0h50v50H0z"/><path fill-rule="evenodd" clip-rule="evenodd" d="M26.636 24.167v-3.332c0-.678.753-1.072 1.294-.678l5.727 4.165a.842.842 0 010 1.356l-5.727 4.165c-.541.394-1.294 0-1.294-.678v-3.332h-9.818A.826.826 0 0116 25c0-.46.366-.833.818-.833h9.818zm0 0h.819c.451 0 .817.372.818.832v-2.546L31.774 25l-3.501 2.547V25c0 .46-.367.832-.819.832h-.818v-1.666z" fill="#111"/><mask id="a" maskUnits="userSpaceOnUse" x="16" y="20" width="18" height="10"><path fill-rule="evenodd" clip-rule="evenodd" d="M26.636 24.167v-3.332c0-.678.753-1.072 1.294-.678l5.727 4.165a.842.842 0 010 1.356l-5.727 4.165c-.541.394-1.294 0-1.294-.678v-3.332h-9.818A.826.826 0 0116 25c0-.46.366-.833.818-.833h9.818zm0 0h.819c.451 0 .817.372.818.832v-2.546L31.774 25l-3.501 2.547V25c0 .46-.367.832-.819.832h-.818v-1.666z" fill="#fff"/></mask><g mask="url(#a)"><path fill="#000" d="M15 15h20v20H15z"/></g></svg>